<?xml version="1.0" encoding="utf-8"?>
<!-- Generator: Adobe Illustrator 16.0.3, SVG Export Plug-In . SVG Version: 6.00 Build 0)  -->
<!DOCTYPE svg PUBLIC "-//W3C//DTD SVG 1.1//EN" "http://www.w3.org/Graphics/SVG/1.1/DTD/svg11.dtd">
<svg version="1.1" id="Layer_1" xmlns="http://www.w3.org/2000/svg" xmlns:xlink="http://www.w3.org/1999/xlink" x="0px" y="0px"
	 width="1055.947px" height="188.99px" viewBox="0 0 1055.947 188.99" enable-background="new 0 0 1055.947 188.99"
	 xml:space="preserve">
<polygon fill="#1F3458" points="78.693,113.022 78.693,99.055 42.163,99.055 42.163,44.149 24.747,44.149 24.747,113.022 "/>
<path fill="#1F3458" d="M127.646,86.638h-17.734l9.026-25.609L127.646,86.638z M101.417,113.022l5.734-15.423h23.469l5.84,15.423
	h18.478l-28.884-68.873h-14.124l-28.991,68.873H101.417z"/>
<path fill="#1F3458" d="M182.442,58.119h13.593c0.99,0,1.981,0.179,2.973,0.533c0.991,0.357,1.875,0.922,2.655,1.698
	c0.778,0.776,1.397,1.746,1.858,2.91c0.46,1.164,0.691,2.555,0.691,4.171c0,3.105-0.744,5.466-2.23,7.082
	c-1.487,1.617-3.258,2.425-5.31,2.425h-14.23V58.119z M182.442,113.022V90.809h15.292c3.61,0,6.902-0.645,9.876-1.94
	c2.974-1.293,5.504-3.039,7.593-5.238c2.087-2.198,3.717-4.688,4.885-7.469c1.167-2.78,1.751-5.69,1.751-8.731
	c0-2.845-0.62-5.658-1.858-8.439c-1.239-2.78-2.938-5.27-5.097-7.469c-2.16-2.198-4.744-3.978-7.752-5.335
	c-3.01-1.358-6.319-2.038-9.929-2.038h-32.177v68.873H182.442z"/>
<polygon fill="#1F3458" points="251.36,99.054 251.36,84.406 281.094,84.406 281.094,71.505 251.36,71.505 251.36,58.118 
	285.979,58.118 285.979,44.15 233.944,44.15 233.944,113.022 286.935,113.022 286.935,99.054 "/>
<path fill="#1F3458" d="M383.995,58.119h13.592c0.991,0,1.982,0.179,2.974,0.533c0.99,0.357,1.875,0.922,2.654,1.698
	c0.779,0.776,1.398,1.746,1.859,2.91c0.46,1.164,0.69,2.555,0.69,4.171c0,3.105-0.743,5.466-2.229,7.082
	c-1.488,1.617-3.258,2.425-5.31,2.425h-14.23V58.119z M383.995,113.022V90.809h15.292c3.61,0,6.902-0.645,9.876-1.94
	c2.973-1.293,5.504-3.039,7.592-5.238c2.087-2.198,3.717-4.688,4.885-7.469c1.168-2.78,1.752-5.69,1.752-8.731
	c0-2.845-0.62-5.658-1.858-8.439c-1.24-2.78-2.939-5.27-5.097-7.469c-2.16-2.198-4.744-3.978-7.752-5.335
	c-3.011-1.358-6.319-2.038-9.93-2.038h-32.176v68.873H383.995z M354.898,113.022V99.055h-36.53V44.149h-17.416v68.873H354.898z"/>
<path fill="#1F3458" d="M522.681,113.022h14.017V44.15h-17.416V84.6l-35.15-40.45H470.54v68.872h17.416V73.639L522.681,113.022z
	 M452.912,44.15h-17.416v68.873h17.416V44.15z"/>
<path fill="#1F3458" d="M607.209,51.134c-1.63-0.905-3.471-1.81-5.521-2.716c-2.055-0.905-4.231-1.713-6.531-2.425
	c-2.301-0.711-4.725-1.293-7.274-1.746c-2.549-0.452-5.169-0.679-7.858-0.679c-3.752,0-7.311,0.485-10.672,1.455
	c-3.365,0.97-6.319,2.41-8.869,4.317c-2.547,1.908-4.564,4.252-6.051,7.032c-1.488,2.782-2.23,5.983-2.23,9.603
	c0,2.588,0.406,4.851,1.221,6.791c0.813,1.94,2.071,3.654,3.77,5.141c1.699,1.488,3.824,2.798,6.371,3.929
	c2.549,1.132,5.558,2.182,9.027,3.152c2.618,0.712,5.026,1.358,7.221,1.94s4.105,1.213,5.735,1.892
	c1.627,0.679,2.901,1.439,3.822,2.279c0.92,0.842,1.381,1.909,1.381,3.202c0,3.428-3.08,5.141-9.239,5.141
	c-2.904,0-5.771-0.355-8.602-1.067c-2.832-0.711-5.381-1.519-7.646-2.426c-2.267-0.904-4.178-1.809-5.735-2.715
	c-1.558-0.905-2.512-1.519-2.866-1.844l-7.646,13.873c2.193,1.357,4.601,2.555,7.221,3.589c2.619,1.034,5.31,1.925,8.07,2.668
	c2.76,0.743,5.575,1.309,8.442,1.696c2.867,0.389,5.683,0.582,8.442,0.582c3.61,0,7.131-0.371,10.566-1.115
	c3.432-0.742,6.459-1.94,9.079-3.59c2.619-1.647,4.726-3.813,6.317-6.498c1.595-2.684,2.391-5.965,2.391-9.847
	c0-3.167-0.549-5.884-1.646-8.148c-1.098-2.263-2.672-4.186-4.725-5.772c-2.055-1.583-4.531-2.91-7.434-3.977
	c-2.904-1.067-6.159-2.052-9.77-2.958c-2.549-0.646-4.798-1.229-6.744-1.746c-1.947-0.517-3.576-1.082-4.885-1.698
	c-1.311-0.614-2.32-1.31-3.027-2.086c-0.707-0.775-1.061-1.746-1.061-2.91c0-1.875,0.796-3.298,2.389-4.268
	c1.594-0.97,3.877-1.455,6.85-1.455c2.266,0,4.529,0.291,6.797,0.873c2.265,0.582,4.354,1.261,6.265,2.037
	c1.912,0.776,3.505,1.52,4.779,2.231c1.274,0.713,2.053,1.198,2.336,1.455L607.209,51.134z"/>
<path fill="#DD9B37" d="M675.548,91.003c1.769,4.268,4.229,8.084,7.38,11.446c3.149,3.364,6.902,6.063,11.257,8.1
	c4.354,2.037,9.149,3.056,14.388,3.056c2.975,0,6-0.355,9.08-1.066s6-1.746,8.762-3.105c2.761-1.357,5.22-3.037,7.38-5.043
	c2.159-2.005,3.805-4.269,4.938-6.791l-14.336-7.663c-0.709,1.746-1.63,3.217-2.761,4.413c-1.134,1.198-2.408,2.168-3.823,2.91
	c-1.417,0.744-2.886,1.295-4.408,1.65c-1.522,0.356-2.99,0.533-4.406,0.533c-2.762,0-5.274-0.565-7.539-1.697
	c-2.267-1.131-4.195-2.668-5.788-4.608s-2.832-4.171-3.717-6.694c-0.886-2.522-1.327-5.141-1.327-7.857
	c0-2.522,0.372-5.011,1.115-7.469c0.742-2.457,1.858-4.656,3.345-6.596c1.485-1.94,3.36-3.524,5.628-4.753
	c2.266-1.228,4.955-1.844,8.071-1.844c1.344,0,2.777,0.146,4.301,0.437c1.521,0.291,2.99,0.809,4.407,1.552
	c1.415,0.744,2.724,1.715,3.929,2.91c1.203,1.198,2.193,2.701,2.974,4.511l13.38-8.537c-2.407-4.461-6.089-8.083-11.044-10.864
	c-4.956-2.78-10.797-4.171-17.521-4.171c-5.734,0-10.852,1.004-15.345,3.007c-4.497,2.005-8.302,4.625-11.416,7.858
	c-3.116,3.234-5.487,6.903-7.115,11.009c-1.629,4.108-2.442,8.23-2.442,12.368C672.893,82.403,673.777,86.734,675.548,91.003"/>
<path fill="#DD9B37" d="M764.644,71.068c0.778-2.489,1.928-4.705,3.451-6.645c1.521-1.939,3.415-3.507,5.681-4.704
	c2.266-1.196,4.92-1.795,7.965-1.795c2.902,0,5.485,0.567,7.752,1.698c2.266,1.132,4.177,2.652,5.734,4.559
	c1.557,1.908,2.743,4.107,3.558,6.596c0.813,2.49,1.222,5.061,1.222,7.712c0,2.587-0.372,5.126-1.115,7.615
	c-0.743,2.49-1.877,4.721-3.398,6.693c-1.522,1.973-3.416,3.574-5.681,4.802c-2.267,1.229-4.922,1.843-7.965,1.843
	c-2.974,0-5.612-0.582-7.911-1.747c-2.302-1.164-4.213-2.715-5.734-4.656c-1.523-1.94-2.691-4.154-3.505-6.644
	c-0.814-2.489-1.221-5.059-1.221-7.712C763.476,76.098,763.864,73.559,764.644,71.068 M796.13,110.694
	c4.424-1.939,8.229-4.511,11.416-7.712c3.186-3.201,5.681-6.902,7.486-11.107c1.805-4.202,2.708-8.568,2.708-13.095
	c0-4.332-0.85-8.6-2.549-12.805c-1.699-4.202-4.125-7.954-7.274-11.252c-3.15-3.298-6.921-5.949-11.31-7.954
	c-4.391-2.004-9.275-3.007-14.654-3.007c-5.24,0-10.072,0.954-14.496,2.861c-4.425,1.908-8.248,4.463-11.469,7.664
	c-3.222,3.2-5.734,6.904-7.539,11.106c-1.806,4.205-2.708,8.57-2.708,13.096c0,4.462,0.866,8.795,2.602,12.998
	c1.733,4.205,4.177,7.939,7.327,11.204c3.148,3.267,6.919,5.901,11.31,7.906c4.389,2.005,9.273,3.007,14.655,3.007
	C786.874,113.604,791.705,112.634,796.13,110.694"/>
<rect x="831.013" y="44.15" fill="#DD9B37" width="17.416" height="68.873"/>
<polygon fill="#DD9B37" points="918.197,113.022 932.214,113.022 932.214,44.149 914.798,44.149 914.798,84.601 879.648,44.149 
	866.055,44.149 866.055,113.022 883.471,113.022 883.471,73.64 "/>
<path fill="#DD9B37" d="M1002.619,51.134c-1.63-0.905-3.47-1.81-5.522-2.716c-2.054-0.905-4.23-1.713-6.53-2.425
	c-2.301-0.711-4.726-1.293-7.274-1.746c-2.549-0.452-5.169-0.679-7.858-0.679c-3.753,0-7.311,0.485-10.673,1.455
	c-3.363,0.97-6.318,2.41-8.867,4.317c-2.547,1.908-4.565,4.252-6.053,7.032c-1.486,2.782-2.229,5.983-2.229,9.603
	c0,2.588,0.406,4.851,1.221,6.791c0.813,1.94,2.071,3.654,3.77,5.141c1.699,1.488,3.823,2.798,6.372,3.929
	c2.549,1.132,5.557,2.182,9.026,3.152c2.618,0.712,5.026,1.358,7.222,1.94c2.193,0.582,4.104,1.213,5.734,1.892
	c1.627,0.679,2.901,1.439,3.822,2.279c0.92,0.842,1.381,1.909,1.381,3.202c0,3.428-3.08,5.141-9.239,5.141
	c-2.903,0-5.771-0.355-8.602-1.067c-2.832-0.711-5.381-1.519-7.646-2.426c-2.267-0.904-4.178-1.809-5.734-2.715
	c-1.559-0.905-2.514-1.519-2.867-1.844l-7.646,13.873c2.194,1.357,4.602,2.555,7.222,3.589c2.619,1.034,5.31,1.925,8.07,2.668
	s5.575,1.309,8.442,1.696c2.867,0.389,5.682,0.582,8.442,0.582c3.61,0,7.132-0.371,10.566-1.115c3.433-0.742,6.459-1.94,9.079-3.59
	c2.619-1.647,4.727-3.813,6.318-6.498c1.594-2.684,2.39-5.965,2.39-9.847c0-3.167-0.549-5.884-1.646-8.148
	c-1.099-2.263-2.674-4.186-4.726-5.772c-2.055-1.583-4.532-2.91-7.434-3.977c-2.904-1.067-6.159-2.052-9.77-2.958
	c-2.549-0.646-4.798-1.229-6.744-1.746c-1.947-0.517-3.575-1.082-4.885-1.698c-1.311-0.614-2.319-1.31-3.026-2.086
	c-0.708-0.775-1.062-1.746-1.062-2.91c0-1.875,0.796-3.298,2.389-4.268c1.594-0.97,3.876-1.455,6.85-1.455
	c2.266,0,4.53,0.291,6.797,0.873c2.265,0.582,4.354,1.261,6.265,2.037c1.912,0.776,3.505,1.52,4.779,2.231
	c1.274,0.713,2.053,1.198,2.336,1.455L1002.619,51.134z"/>
<path fill="#949593" d="M407.418,130.386c1.155,0,2.181,0.396,3.081,1.184c1.41,1.24,2.117,3.27,2.117,6.085
	c0,1.804-0.707,3.325-2.117,4.565c-0.771,0.674-1.926,1.014-3.466,1.014c-0.899,0-1.8-0.395-2.696-1.185
	c-1.028-0.899-1.54-2.477-1.54-4.733c0-2.814,0.64-4.787,1.926-5.916C405.493,130.724,406.39,130.386,407.418,130.386
	 M398.176,137.315c0,3.043,1.026,5.469,3.081,7.27c1.281,1.128,2.887,1.689,4.813,1.689c2.052,0,3.784-0.617,5.199-1.858
	c0.64-0.563,1.218-1.183,1.733-1.858c0,4.846-1.029,8.17-3.081,9.973c-0.9,0.789-1.926,1.183-3.081,1.183
	c-1.029,0-1.799-0.225-2.31-0.676c-1.155-1.015-1.67-2.253-1.541-3.719h-4.428c0,2.366,0.833,4.284,2.503,5.747
	c1.411,1.242,3.336,1.859,5.776,1.859c2.437,0,4.555-0.787,6.354-2.367c2.822-2.478,4.236-6.703,4.236-12.678
	c0-5.857-1.348-9.973-4.043-12.339c-1.67-1.463-3.659-2.198-5.969-2.198c-2.44,0-4.365,0.621-5.776,1.86
	C399.332,131.231,398.176,133.935,398.176,137.315 M382.773,130.386c1.156,0,2.181,0.396,3.081,1.184
	c1.411,1.24,2.118,3.27,2.118,6.085c0,1.804-0.707,3.325-2.118,4.565c-0.77,0.674-1.925,1.014-3.465,1.014
	c-0.9,0-1.8-0.395-2.697-1.185c-1.028-0.899-1.54-2.477-1.54-4.733c0-2.814,0.641-4.787,1.926-5.916
	C380.849,130.724,381.745,130.386,382.773,130.386 M373.531,137.315c0,3.043,1.027,5.469,3.081,7.27
	c1.282,1.128,2.888,1.689,4.814,1.689c2.051,0,3.784-0.617,5.198-1.858c0.641-0.563,1.219-1.183,1.733-1.858
	c0,4.846-1.029,8.17-3.081,9.973c-0.899,0.789-1.925,1.183-3.081,1.183c-1.028,0-1.799-0.225-2.309-0.676
	c-1.156-1.015-1.67-2.253-1.541-3.719h-4.428c0,2.366,0.833,4.284,2.503,5.747c1.41,1.242,3.336,1.859,5.775,1.859
	c2.438,0,4.556-0.787,6.355-2.367c2.821-2.478,4.235-6.703,4.235-12.678c0-5.857-1.348-9.973-4.043-12.339
	c-1.67-1.463-3.658-2.198-5.969-2.198c-2.439,0-4.365,0.621-5.776,1.86C374.687,131.231,373.531,133.935,373.531,137.315
	 M358.128,130.386c1.155,0,2.181,0.396,3.081,1.184c1.41,1.24,2.117,3.27,2.117,6.085c0,1.804-0.707,3.325-2.117,4.565
	c-0.771,0.674-1.926,1.014-3.466,1.014c-0.899,0-1.8-0.395-2.696-1.185c-1.028-0.899-1.54-2.477-1.54-4.733
	c0-2.814,0.64-4.787,1.926-5.916C356.203,130.724,357.1,130.386,358.128,130.386 M348.886,137.315c0,3.043,1.026,5.469,3.081,7.27
	c1.281,1.128,2.887,1.689,4.813,1.689c2.052,0,3.784-0.617,5.198-1.858c0.641-0.563,1.219-1.183,1.734-1.858
	c0,4.846-1.029,8.17-3.081,9.973c-0.9,0.789-1.926,1.183-3.081,1.183c-1.029,0-1.799-0.225-2.31-0.676
	c-1.155-1.015-1.67-2.253-1.541-3.719h-4.428c0,2.366,0.833,4.284,2.503,5.747c1.411,1.242,3.336,1.859,5.776,1.859
	c2.437,0,4.555-0.787,6.354-2.367c2.822-2.478,4.236-6.703,4.236-12.678c0-5.857-1.348-9.973-4.043-12.339
	c-1.67-1.463-3.659-2.198-5.969-2.198c-2.44,0-4.365,0.621-5.776,1.86C350.042,131.231,348.886,133.935,348.886,137.315
	 M332.712,130.556c-1.028,0.902-2.44,1.352-4.235,1.352h-1.734v2.027h5.776v22.482h4.429v-29.243h-2.31
	C334.508,128.415,333.868,129.541,332.712,130.556 M294.205,140.19c1.667,0,2.951,0.396,3.851,1.183
	c1.026,0.904,1.541,1.918,1.541,3.043h-10.975c0.255-1.125,0.833-2.084,1.732-2.874C291.38,140.642,292.665,140.19,294.205,140.19
	 M284.192,147.121c0,3.042,1.026,5.467,3.08,7.269c1.926,1.69,4.429,2.535,7.51,2.535c2.951,0,5.262-0.731,6.932-2.197
	c1.154-1.015,1.988-2.535,2.503-4.564h-4.237c0,1.014-0.451,1.917-1.347,2.705c-0.771,0.676-2.055,1.014-3.851,1.014
	c-1.799,0-3.273-0.507-4.429-1.521c-1.284-1.126-1.925-2.874-1.925-5.24h15.595c0-3.269-0.899-5.688-2.695-7.269
	c-1.925-1.69-4.235-2.537-6.932-2.537c-2.824,0-5.134,0.791-6.93,2.367C285.281,141.601,284.192,144.078,284.192,147.121
	 M259.548,147.289c0,2.933,1.155,5.41,3.466,7.438c1.796,1.58,4.043,2.367,6.738,2.367c3.207,0,5.647-0.732,7.317-2.199
	c1.666-1.463,2.566-3.379,2.696-5.746h-4.237c0,1.466-0.514,2.648-1.54,3.55c-1.029,0.903-2.439,1.353-4.236,1.353
	c-1.54,0-2.824-0.449-3.851-1.353c-1.414-1.239-2.118-2.985-2.118-5.241c0-2.365,0.771-4.225,2.311-5.578
	c1.026-0.9,2.31-1.352,3.851-1.352c1.54,0,2.696,0.338,3.465,1.014c0.898,0.79,1.411,1.635,1.541,2.536h4.235
	c-0.258-1.801-1.091-3.323-2.502-4.563c-1.54-1.353-3.851-2.029-6.932-2.029c-2.824,0-5.198,0.845-7.124,2.535
	C260.574,141.825,259.548,144.247,259.548,147.289 M239.332,147.121c0-1.915,0.962-3.719,2.888-5.41
	c1.281-1.125,2.566-1.69,3.85-1.69c1.411,0,2.503,0.338,3.274,1.015c0.77,0.676,1.155,1.522,1.155,2.536v13.015h3.851v-14.028
	c0-1.239-0.515-2.31-1.54-3.213c-1.54-1.352-3.596-2.029-6.162-2.029c-2.569,0-5.005,1.242-7.316,3.72v-3.381h-3.852v18.932h3.852
	V147.121z M225.469,156.586h3.851v-18.932h-3.851V156.586z M225.469,132.245h3.851v-4.395h-3.851V132.245z M196.203,135.288
	c0,1.689,0.578,3.042,1.733,4.057c0.77,0.676,1.667,1.184,2.696,1.521c1.411,0.566,3.272,1.297,5.583,2.197
	c2.052,0.789,3.721,1.467,5.007,2.029c1.41,0.564,2.436,1.127,3.08,1.69c0.77,0.675,1.155,1.521,1.155,2.535
	c0,0.903-0.515,1.804-1.54,2.704c-1.285,1.127-3.273,1.69-5.969,1.69c-2.954,0-5.136-0.618-6.547-1.86
	c-1.028-0.899-1.54-2.365-1.54-4.395h-4.428c0,2.819,0.834,4.961,2.503,6.424c2.31,2.029,5.584,3.043,9.82,3.043
	c4.362,0,7.509-0.845,9.434-2.535c1.796-1.578,2.696-3.492,2.696-5.748c0-1.689-0.707-3.153-2.118-4.395
	c-0.9-0.787-1.863-1.354-2.888-1.689c-3.725-1.465-7.062-2.762-10.013-3.889c-1.669-0.563-2.824-1.126-3.466-1.691
	c-0.513-0.448-0.769-1.183-0.769-2.196c0-1.015,0.448-1.915,1.347-2.705c1.026-0.899,2.888-1.353,5.584-1.353
	c2.437,0,4.236,0.508,5.391,1.521c1.026,0.902,1.54,2.029,1.54,3.381h4.429c0-2.139-0.9-3.999-2.695-5.578
	c-2.055-1.801-5.073-2.705-9.05-2.705c-3.725,0-6.484,0.791-8.28,2.367C197.1,131.289,196.203,133.147,196.203,135.288
	 M165.204,140.19c1.411,0,2.63,0.451,3.658,1.352c1.54,1.352,2.311,3.212,2.311,5.579c0,2.366-0.707,4.17-2.118,5.409
	c-1.029,0.902-2.311,1.352-3.851,1.352c-1.284,0-2.377-0.394-3.273-1.183c-1.414-1.239-2.118-3.099-2.118-5.578
	c0-2.591,0.641-4.451,1.925-5.579C162.765,140.642,163.919,140.19,165.204,140.19 M171.172,140.021
	c-1.54-1.914-3.725-2.873-6.546-2.873c-2.311,0-4.303,0.734-5.969,2.197c-2.055,1.805-3.081,4.396-3.081,7.776
	c0,3.156,1.155,5.747,3.466,7.774c1.54,1.353,3.658,2.029,6.353,2.029c2.438,0,4.363-0.9,5.777-2.705v2.366h3.85v-28.905h-3.85
	V140.021z M140.75,140.19c1.667,0,2.951,0.396,3.851,1.183c1.026,0.904,1.541,1.918,1.541,3.043h-10.975
	c0.255-1.125,0.833-2.084,1.732-2.874C137.926,140.642,139.21,140.19,140.75,140.19 M130.738,147.121
	c0,3.042,1.026,5.467,3.08,7.269c1.926,1.69,4.429,2.535,7.51,2.535c2.951,0,5.262-0.731,6.932-2.197
	c1.154-1.015,1.988-2.535,2.503-4.564h-4.237c0,1.014-0.451,1.917-1.347,2.705c-0.771,0.676-2.055,1.014-3.851,1.014
	c-1.799,0-3.273-0.507-4.429-1.521c-1.284-1.126-1.925-2.874-1.925-5.24h15.595c0-3.269-0.899-5.688-2.695-7.269
	c-1.925-1.69-4.235-2.537-6.932-2.537c-2.824,0-5.134,0.791-6.93,2.367C131.828,141.601,130.738,144.078,130.738,147.121
	 M115.722,137.654h-4.621v2.704h4.621v11.326c0,1.353,0.64,2.594,1.924,3.719c1.156,1.014,3.015,1.521,5.584,1.521
	c1.667,0,3.207-0.339,4.622-1.014v-3.212c-1.415,0.789-3.018,1.183-4.814,1.183c-1.155,0-1.991-0.224-2.503-0.676
	c-0.643-0.563-0.963-1.184-0.963-1.859v-10.988h6.547v-2.704h-6.547v-6.593h-3.85V137.654z M91.269,143.063
	c0,1.127,0.578,2.197,1.733,3.211c0.641,0.566,1.667,1.015,3.08,1.354c1.155,0.338,2.889,0.734,5.199,1.184
	c1.156,0.227,1.989,0.564,2.503,1.014c0.641,0.566,0.963,1.072,0.963,1.521c0,0.676-0.259,1.241-0.77,1.69
	c-0.771,0.676-2.248,1.015-4.429,1.015c-1.799,0-3.147-0.394-4.043-1.184c-0.515-0.449-0.836-1.184-0.963-2.198H90.69
	c0,1.691,0.641,3.101,1.926,4.226c1.54,1.353,3.913,2.029,7.123,2.029c3.207,0,5.584-0.677,7.124-2.029
	c1.282-1.125,1.926-2.365,1.926-3.719c0-1.238-0.515-2.308-1.54-3.211c-0.515-0.449-1.285-0.845-2.311-1.183
	c-1.155-0.339-2.569-0.677-4.236-1.015c-2.695-0.563-4.302-1.069-4.813-1.521c-0.385-0.338-0.578-0.732-0.578-1.184
	c0-0.676,0.319-1.295,0.963-1.859c0.77-0.676,1.796-1.014,3.08-1.014c2.052,0,3.466,0.338,4.237,1.014
	c0.385,0.338,0.64,0.902,0.769,1.689h3.852c0-1.352-0.645-2.59-1.926-3.717c-1.414-1.24-3.658-1.861-6.739-1.861
	c-2.824,0-5.006,0.678-6.546,2.029C91.847,140.358,91.269,141.601,91.269,143.063 M66.624,151.517c0,1.578,0.578,2.873,1.733,3.887
	c1.156,1.014,3.08,1.521,5.777,1.521c2.951,0,5.454-1.238,7.509-3.719v3.38h3.85v-18.932h-3.85v9.635
	c0,1.806-0.963,3.55-2.888,5.241c-1.285,1.128-2.763,1.689-4.429,1.689c-1.155,0-2.055-0.279-2.695-0.845
	c-0.771-0.676-1.155-1.69-1.155-3.043v-12.678h-3.852V151.517z M55.264,140.021c-0.77,0.677-1.477,1.467-2.119,2.367v-4.733h-3.85
	v18.932h3.85v-9.634c0.512-1.354,1.475-2.646,2.889-3.889c1.667-1.463,3.466-2.197,5.391-2.197c0.896,0,1.603,0.058,2.118,0.169
	v-3.72C60.077,137.315,57.314,138.22,55.264,140.021 M18.874,130.894h10.975v25.692h4.428v-25.692h10.975v-3.213H18.874V130.894z"/>
<rect x="885.321" y="142.863" transform="matrix(0.1039 0.9946 -0.9946 0.1039 942.7809 -753.3929)" fill="#1F3458" width="8.328" height="7.272"/>
<path fill="#1F3458" d="M897.793,131.272c-0.227-2.167-0.025-4.372,0.604-6.613c0.628-2.24,1.669-4.293,3.125-6.158
	c1.455-1.862,3.305-3.442,5.552-4.739c2.245-1.296,4.869-2.101,7.874-2.415c3.523-0.367,6.659,0.042,9.408,1.228
	c2.748,1.187,4.875,2.882,6.379,5.089l-6.543,5.202c-0.507-0.905-1.107-1.639-1.804-2.2c-0.696-0.561-1.436-0.996-2.218-1.31
	c-0.783-0.312-1.58-0.503-2.394-0.571c-0.814-0.07-1.573-0.068-2.277,0.006c-1.633,0.17-3.008,0.64-4.127,1.406
	c-1.121,0.768-2.016,1.701-2.689,2.799c-0.673,1.098-1.137,2.311-1.392,3.639s-0.313,2.652-0.176,3.974
	c0.148,1.423,0.523,2.771,1.125,4.044s1.373,2.373,2.313,3.303c0.941,0.931,2.035,1.629,3.285,2.098
	c1.248,0.47,2.596,0.629,4.042,0.478c0.742-0.077,1.501-0.251,2.279-0.521c0.779-0.27,1.518-0.637,2.22-1.105
	c0.7-0.466,1.314-1.044,1.843-1.734c0.528-0.688,0.93-1.508,1.205-2.463l7.931,3.231c-0.456,1.383-1.194,2.66-2.216,3.827
	c-1.023,1.169-2.219,2.184-3.591,3.047c-1.373,0.861-2.846,1.564-4.42,2.105c-1.575,0.541-3.141,0.893-4.699,1.055
	c-2.743,0.287-5.313,0.015-7.704-0.814c-2.394-0.828-4.507-2.037-6.341-3.628c-1.835-1.588-3.333-3.452-4.493-5.592
	C898.734,135.798,898.034,133.577,897.793,131.272"/>
<path fill="#1F3458" d="M956.709,143.976c-2.819,0.296-5.434,0.037-7.842-0.773c-2.41-0.811-4.528-1.984-6.357-3.523
	c-1.829-1.537-3.313-3.36-4.453-5.469c-1.138-2.106-1.828-4.33-2.072-6.668c-0.248-2.369-0.014-4.707,0.703-7.009
	c0.715-2.3,1.828-4.378,3.342-6.231c1.513-1.853,3.375-3.399,5.59-4.642c2.213-1.239,4.692-2.005,7.438-2.292
	c2.817-0.294,5.433-0.035,7.842,0.775c2.408,0.81,4.528,1.992,6.359,3.548c1.83,1.556,3.307,3.389,4.428,5.498
	c1.119,2.108,1.798,4.299,2.034,6.567c0.248,2.373,0.015,4.709-0.702,7.01c-0.716,2.302-1.82,4.377-3.315,6.229
	c-1.493,1.852-3.347,3.406-5.558,4.664C961.932,142.917,959.454,143.69,956.709,143.976 M945.287,126.675
	c0.146,1.39,0.498,2.713,1.061,3.974c0.563,1.259,1.296,2.356,2.2,3.289c0.902,0.933,1.989,1.642,3.259,2.126
	c1.269,0.484,2.683,0.645,4.24,0.482c1.594-0.166,2.952-0.634,4.072-1.401c1.119-0.767,2.022-1.709,2.713-2.826
	s1.162-2.349,1.415-3.692c0.253-1.346,0.31-2.695,0.168-4.051c-0.146-1.389-0.5-2.713-1.063-3.975
	c-0.563-1.258-1.305-2.346-2.224-3.26c-0.921-0.914-2.006-1.605-3.254-2.076c-1.249-0.467-2.634-0.623-4.154-0.465
	c-1.595,0.166-2.954,0.625-4.074,1.375c-1.122,0.752-2.028,1.676-2.719,2.776c-0.693,1.099-1.174,2.324-1.445,3.67
	C945.209,123.968,945.145,125.32,945.287,126.675"/>
<polygon fill="#1F3458" points="1013.759,137.714 1011.504,116.115 1004.577,132.712 999.68,133.224 989.473,118.415 
	991.728,140.014 982.604,140.966 978.837,104.884 988.741,103.85 1000.945,121.636 1009.269,101.706 1019.117,100.678 
	1022.883,136.761 "/>
<rect x="885.321" y="142.863" transform="matrix(0.1039 0.9946 -0.9946 0.1039 942.7809 -753.3929)" fill="#1F3458" width="8.328" height="7.272"/>
<path fill="#1F3458" d="M897.793,131.272c-0.227-2.167-0.025-4.372,0.604-6.613c0.628-2.24,1.669-4.293,3.125-6.158
	c1.455-1.862,3.305-3.442,5.552-4.739c2.245-1.296,4.869-2.101,7.874-2.415c3.523-0.367,6.659,0.042,9.408,1.228
	c2.748,1.187,4.875,2.882,6.379,5.089l-6.543,5.202c-0.507-0.905-1.107-1.639-1.804-2.2c-0.696-0.561-1.436-0.996-2.218-1.31
	c-0.783-0.312-1.58-0.503-2.394-0.571c-0.814-0.07-1.573-0.068-2.277,0.006c-1.633,0.17-3.008,0.64-4.127,1.406
	c-1.121,0.768-2.016,1.701-2.689,2.799c-0.673,1.098-1.137,2.311-1.392,3.639s-0.313,2.652-0.176,3.974
	c0.148,1.423,0.523,2.771,1.125,4.044s1.373,2.373,2.313,3.303c0.941,0.931,2.035,1.629,3.285,2.098
	c1.248,0.47,2.596,0.629,4.042,0.478c0.742-0.077,1.501-0.251,2.279-0.521c0.779-0.27,1.518-0.637,2.22-1.105
	c0.7-0.466,1.314-1.044,1.843-1.734c0.528-0.688,0.93-1.508,1.205-2.463l7.931,3.231c-0.456,1.383-1.194,2.66-2.216,3.827
	c-1.023,1.169-2.219,2.184-3.591,3.047c-1.373,0.861-2.846,1.564-4.42,2.105c-1.575,0.541-3.141,0.893-4.699,1.055
	c-2.743,0.287-5.313,0.015-7.704-0.814c-2.394-0.828-4.507-2.037-6.341-3.628c-1.835-1.588-3.333-3.452-4.493-5.592
	C898.734,135.798,898.034,133.577,897.793,131.272"/>
<path fill="#1F3458" d="M956.709,143.976c-2.819,0.296-5.434,0.037-7.842-0.773c-2.41-0.811-4.528-1.984-6.357-3.523
	c-1.829-1.537-3.313-3.36-4.453-5.469c-1.138-2.106-1.828-4.33-2.072-6.668c-0.248-2.369-0.014-4.707,0.703-7.009
	c0.715-2.3,1.828-4.378,3.342-6.231c1.513-1.853,3.375-3.399,5.59-4.642c2.213-1.239,4.692-2.005,7.438-2.292
	c2.817-0.294,5.433-0.035,7.842,0.775c2.408,0.81,4.528,1.992,6.359,3.548c1.83,1.556,3.307,3.389,4.428,5.498
	c1.119,2.108,1.798,4.299,2.034,6.567c0.248,2.373,0.015,4.709-0.702,7.01c-0.716,2.302-1.82,4.377-3.315,6.229
	c-1.493,1.852-3.347,3.406-5.558,4.664C961.932,142.917,959.454,143.69,956.709,143.976 M945.287,126.675
	c0.146,1.39,0.498,2.713,1.061,3.974c0.563,1.259,1.296,2.356,2.2,3.289c0.902,0.933,1.989,1.642,3.259,2.126
	c1.269,0.484,2.683,0.645,4.24,0.482c1.594-0.166,2.952-0.634,4.072-1.401c1.119-0.767,2.022-1.709,2.713-2.826
	s1.162-2.349,1.415-3.692c0.253-1.346,0.31-2.695,0.168-4.051c-0.146-1.389-0.5-2.713-1.063-3.975
	c-0.563-1.258-1.305-2.346-2.224-3.26c-0.921-0.914-2.006-1.605-3.254-2.076c-1.249-0.467-2.634-0.623-4.154-0.465
	c-1.595,0.166-2.954,0.625-4.074,1.375c-1.122,0.752-2.028,1.676-2.719,2.776c-0.693,1.099-1.174,2.324-1.445,3.67
	C945.209,123.968,945.145,125.32,945.287,126.675"/>
<polygon fill="#1F3458" points="1013.759,137.714 1011.504,116.115 1004.577,132.712 999.68,133.224 989.473,118.415 
	991.728,140.014 982.604,140.966 978.837,104.884 988.741,103.85 1000.945,121.636 1009.269,101.706 1019.117,100.678 
	1022.883,136.761 "/>
<path fill="#FFFFFF" d="M886.301,151.018l0.497-0.052l-0.813-7.786l6.238-0.651l0.761,7.289l-6.734,0.703L886.301,151.018
	l0.497-0.052L886.301,151.018l0.052,0.497l7.231-0.755c0.131-0.013,0.254-0.08,0.337-0.183c0.083-0.102,0.122-0.235,0.108-0.367
	l-0.864-8.282c-0.014-0.131-0.08-0.253-0.183-0.336c-0.102-0.083-0.235-0.123-0.366-0.109l-7.232,0.755
	c-0.274,0.028-0.475,0.274-0.445,0.549l0.865,8.283c0.028,0.275,0.274,0.475,0.549,0.445L886.301,151.018z"/>
<path fill="#FFFFFF" d="M897.793,131.272l0.497-0.052c-0.058-0.558-0.087-1.116-0.087-1.679c0-1.56,0.224-3.141,0.675-4.748
	c0.61-2.179,1.62-4.168,3.038-5.984c1.412-1.809,3.209-3.348,5.407-4.615c2.176-1.255,4.729-2.043,7.676-2.351
	c0.817-0.085,1.612-0.128,2.384-0.128c2.491,0,4.744,0.441,6.774,1.318c2.676,1.155,4.715,2.787,6.164,4.909l0.413-0.28
	l-0.312-0.392l-6.543,5.203l0.312,0.391l0.437-0.243c-0.533-0.953-1.174-1.74-1.927-2.347c-0.732-0.589-1.516-1.053-2.346-1.384
	c-0.827-0.329-1.673-0.533-2.537-0.605c-0.408-0.035-0.805-0.054-1.189-0.054c-0.407,0-0.801,0.021-1.182,0.06
	c-1.697,0.177-3.159,0.67-4.357,1.492c-1.175,0.805-2.123,1.79-2.834,2.949c-0.705,1.15-1.19,2.423-1.456,3.807
	c-0.171,0.892-0.257,1.784-0.257,2.676c0,0.481,0.024,0.963,0.075,1.443c0.153,1.478,0.544,2.883,1.17,4.206
	c0.624,1.321,1.431,2.472,2.414,3.445c0.99,0.978,2.147,1.718,3.461,2.21c1.002,0.376,2.065,0.564,3.18,0.564
	c0.358,0,0.722-0.021,1.09-0.059c0.784-0.082,1.581-0.265,2.392-0.546c0.818-0.283,1.597-0.67,2.333-1.161
	c0.746-0.497,1.402-1.113,1.962-1.845c0.571-0.744,0.999-1.625,1.289-2.629l-0.48-0.14l-0.188,0.463l7.931,3.231l0.188-0.463
	l-0.475-0.157c-0.435,1.318-1.137,2.533-2.117,3.655c-0.991,1.131-2.147,2.114-3.481,2.952c-1.34,0.842-2.776,1.527-4.315,2.056
	c-1.542,0.529-3.07,0.872-4.589,1.031c-0.688,0.071-1.364,0.108-2.027,0.108c-1.921,0-3.738-0.301-5.462-0.897
	c-2.337-0.81-4.392-1.986-6.177-3.534c-1.79-1.55-3.248-3.365-4.381-5.453c-1.132-2.086-1.811-4.24-2.044-6.478L897.793,131.272
	l-0.497,0.052c0.247,2.371,0.969,4.659,2.159,6.851c1.188,2.191,2.726,4.105,4.605,5.732c1.883,1.633,4.055,2.874,6.504,3.723
	c1.832,0.636,3.764,0.953,5.789,0.953c0.699,0,1.409-0.039,2.131-0.114c1.599-0.166,3.201-0.527,4.81-1.079
	c1.609-0.553,3.118-1.271,4.523-2.155c1.411-0.887,2.646-1.935,3.701-3.14c1.063-1.215,1.838-2.551,2.314-4
	c0.082-0.25-0.043-0.521-0.286-0.62l-7.931-3.231c-0.131-0.053-0.279-0.048-0.406,0.014s-0.224,0.176-0.263,0.311
	c-0.26,0.903-0.635,1.665-1.121,2.298c-0.497,0.648-1.069,1.187-1.723,1.622c-0.669,0.445-1.369,0.793-2.106,1.049
	c-0.747,0.258-1.468,0.422-2.168,0.496c-0.336,0.034-0.664,0.053-0.986,0.053c-1.002,0-1.941-0.168-2.828-0.5
	c-1.187-0.446-2.217-1.104-3.109-1.986c-0.897-0.887-1.634-1.936-2.213-3.161c-0.577-1.222-0.937-2.513-1.08-3.882
	c-0.046-0.446-0.069-0.893-0.069-1.34c0-0.827,0.079-1.655,0.239-2.488c0.244-1.273,0.687-2.428,1.327-3.473
	c0.635-1.035,1.478-1.914,2.545-2.646c1.04-0.712,2.328-1.157,3.896-1.323c0.344-0.035,0.703-0.054,1.078-0.054
	c0.354,0,0.723,0.017,1.105,0.049c0.763,0.065,1.511,0.244,2.251,0.538c0.733,0.294,1.429,0.703,2.089,1.235
	c0.64,0.516,1.199,1.196,1.681,2.055c0.071,0.128,0.196,0.22,0.34,0.247c0.144,0.028,0.293-0.008,0.408-0.1l6.543-5.203
	c0.205-0.163,0.249-0.456,0.101-0.674c-1.561-2.291-3.772-4.049-6.593-5.265c-2.167-0.935-4.563-1.399-7.171-1.399
	c-0.809,0-1.638,0.045-2.486,0.134c-3.063,0.319-5.76,1.144-8.073,2.479c-2.296,1.324-4.198,2.947-5.696,4.865
	c-1.494,1.913-2.567,4.028-3.212,6.33c-0.474,1.688-0.712,3.362-0.712,5.018c0,0.598,0.03,1.19,0.093,1.782L897.793,131.272z"/>
<path fill="#FFFFFF" d="M956.709,143.976l-0.052-0.496c-0.735,0.076-1.454,0.115-2.158,0.115c-1.938,0-3.76-0.289-5.473-0.866
	c-2.355-0.792-4.415-1.935-6.194-3.433c-1.782-1.498-3.225-3.27-4.335-5.324c-1.108-2.051-1.777-4.207-2.016-6.481
	c-0.062-0.592-0.093-1.183-0.093-1.771c0-1.696,0.258-3.375,0.776-5.037c0.696-2.241,1.778-4.26,3.252-6.063
	c1.472-1.803,3.282-3.309,5.446-4.522c2.15-1.205,4.561-1.95,7.245-2.231c0.733-0.076,1.452-0.114,2.155-0.114
	c1.938,0,3.761,0.289,5.476,0.866c2.354,0.792,4.413,1.943,6.194,3.455c1.783,1.517,3.218,3.297,4.311,5.353v-0.002
	c1.091,2.058,1.748,4.184,1.979,6.387c0.062,0.594,0.093,1.185,0.093,1.772c0,1.697-0.259,3.373-0.775,5.035
	c-0.698,2.244-1.771,4.261-3.227,6.063c-1.453,1.801-3.255,3.313-5.416,4.543c-2.149,1.223-4.558,1.975-7.24,2.256L956.709,143.976
	l0.052,0.498c2.806-0.293,5.354-1.086,7.63-2.381c2.262-1.285,4.166-2.881,5.701-4.783c1.534-1.901,2.67-4.035,3.403-6.396
	c0.547-1.754,0.82-3.532,0.82-5.332c0-0.622-0.033-1.249-0.099-1.876c-0.242-2.335-0.942-4.59-2.09-6.752
	c-1.149-2.164-2.669-4.049-4.545-5.644c-1.881-1.599-4.06-2.813-6.525-3.642c-1.82-0.613-3.755-0.918-5.793-0.918
	c-0.739,0-1.492,0.04-2.259,0.12c-2.806,0.293-5.354,1.077-7.63,2.353c-2.266,1.271-4.18,2.858-5.734,4.763
	c-1.552,1.901-2.697,4.04-3.431,6.399c-0.547,1.754-0.821,3.537-0.821,5.334c0,0.623,0.033,1.248,0.099,1.875
	c0.25,2.401,0.962,4.691,2.131,6.853c1.167,2.162,2.693,4.037,4.569,5.615c1.879,1.581,4.056,2.786,6.521,3.614
	c1.819,0.612,3.754,0.918,5.791,0.918c0.74,0,1.494-0.041,2.262-0.121L956.709,143.976z M945.287,126.675l-0.497,0.051
	c0.15,1.44,0.517,2.818,1.101,4.127c0.585,1.308,1.352,2.455,2.298,3.433v-0.001c0.952,0.988,2.107,1.739,3.439,2.246
	c1.011,0.386,2.105,0.577,3.271,0.577c0.392,0,0.792-0.022,1.2-0.065c1.66-0.173,3.104-0.664,4.303-1.486
	c1.174-0.803,2.13-1.799,2.856-2.976l-0.001,0.001c0.724-1.17,1.219-2.462,1.481-3.863c0.168-0.894,0.253-1.791,0.253-2.689
	c0-0.501-0.026-1.003-0.079-1.505c-0.15-1.44-0.521-2.818-1.103-4.125c-0.586-1.312-1.363-2.453-2.328-3.412v-0.001
	c-0.971-0.963-2.12-1.695-3.431-2.188c-0.994-0.373-2.066-0.559-3.205-0.559c-0.385,0-0.777,0.021-1.177,0.063
	c-1.659,0.174-3.102,0.655-4.301,1.459c-1.176,0.787-2.136,1.765-2.864,2.925l0.001-0.001c-0.728,1.152-1.23,2.437-1.513,3.838
	c-0.186,0.917-0.278,1.837-0.278,2.759c0,0.481,0.025,0.963,0.076,1.444L945.287,126.675l0.497-0.053
	c-0.047-0.447-0.07-0.894-0.07-1.341c0-0.854,0.086-1.708,0.259-2.562c0.261-1.291,0.719-2.455,1.378-3.502l0,0
	c0.653-1.041,1.506-1.912,2.574-2.627c1.043-0.697,2.317-1.134,3.848-1.293c0.367-0.039,0.725-0.059,1.073-0.059
	c1.031,0,1.979,0.167,2.854,0.495c1.186,0.444,2.206,1.097,3.077,1.961c0.873,0.87,1.58,1.903,2.119,3.11
	c0.541,1.213,0.882,2.483,1.022,3.822c0.049,0.467,0.073,0.934,0.073,1.4c0,0.836-0.079,1.671-0.235,2.505
	c-0.243,1.288-0.691,2.458-1.349,3.521l-0.001,0.002c-0.652,1.057-1.505,1.945-2.569,2.676c-1.042,0.714-2.314,1.156-3.842,1.316
	c-0.376,0.039-0.741,0.06-1.097,0.06c-1.058-0.001-2.025-0.172-2.914-0.511c-1.206-0.461-2.227-1.127-3.077-2.008
	c-0.862-0.889-1.562-1.935-2.104-3.145c-0.54-1.211-0.879-2.482-1.02-3.822L945.287,126.675z"/>
<path fill="#FFFFFF" d="M1013.759,137.714l0.497-0.053l-2.255-21.598c-0.023-0.227-0.199-0.41-0.425-0.443s-0.446,0.092-0.533,0.303
	l-6.814,16.324l-4.306,0.448l-10.038-14.565c-0.13-0.188-0.371-0.264-0.585-0.185s-0.349,0.294-0.324,0.521l2.203,21.102l-8.13,0.85
	l-3.663-35.088l9.11-0.951l12.035,17.541c0.104,0.15,0.282,0.232,0.465,0.213c0.182-0.019,0.339-0.135,0.408-0.303l8.211-19.656
	l9.056-0.944l3.663,35.087l-8.627,0.9L1013.759,137.714l0.497-0.053L1013.759,137.714l0.052,0.496l9.124-0.953
	c0.131-0.013,0.254-0.08,0.337-0.182s0.122-0.236,0.108-0.365l-3.768-36.083c-0.013-0.132-0.079-0.254-0.182-0.337
	c-0.102-0.083-0.235-0.122-0.366-0.109l-9.848,1.028c-0.183,0.019-0.339,0.135-0.41,0.304l-7.97,19.081l-11.685-17.027
	c-0.104-0.152-0.281-0.234-0.464-0.215l-9.903,1.033c-0.274,0.029-0.475,0.274-0.445,0.55l3.767,36.082
	c0.028,0.274,0.274,0.474,0.548,0.444l9.125-0.951c0.131-0.014,0.254-0.08,0.337-0.182c0.083-0.103,0.121-0.236,0.108-0.367
	l-2.051-19.649l9.094,13.194c0.104,0.151,0.281,0.232,0.464,0.213l4.896-0.51c0.183-0.02,0.339-0.136,0.409-0.306l6.173-14.787
	l2.052,19.648c0.028,0.274,0.274,0.474,0.549,0.444L1013.759,137.714z"/>
<path fill="#949593" d="M649.873,56.785l-3.249,5.105c0,0-6.852-3.162-11.023,0.044c-3.599,2.766-1.558,10.109,2.98,10.167h0.152
	v5.105c0,0-9.805,4.707-4.898,10.515c1.048,1.241,2.706,1.885,4.299,1.564c2.116-0.428,4.504-2.189,3.032-8.365
	c0,0-0.112-2.011,2.519-2.011h11.188c3.393,0,6.469-2.336,7.045-5.68l0.022-0.133c0,0,6.962,3.647,6.962,7.359
	c0,0-4.642,3.713-11.604,4.41c0,0-1.982,10.243-13.057,13.444c-4.3,1.243-8.899,0.915-13.114-0.593
	c-4.956-1.774-11.191-5.395-11.191-12.387c0,0,0.463-10.211,6.729-10.211c0,0-5.729-3.009-5.71-9.363
	c0.012-3.458,1.875-6.644,4.684-8.66c0.116-0.084,0.236-0.169,0.359-0.254c5.047-3.492,11.46-4.401,17.35-2.674
	C645.656,54.844,648.208,55.744,649.873,56.785"/>
</svg>
